<?xml version="1.0" encoding="iso-8859-1"?>
<!-- Generator: Adobe Illustrator 19.0.0, SVG Export Plug-In . SVG Version: 6.00 Build 0)  -->
<svg version="1.1" id="Capa_1" xmlns="http://www.w3.org/2000/svg" xmlns:xlink="http://www.w3.org/1999/xlink" x="0px" y="0px"
	 viewBox="0 0 510.565 510.565" style="enable-background:new 0 0 510.565 510.565;" xml:space="preserve">
<path style="fill:#94C1FF;" d="M386.697,281.612c0,5.268,3.592,9.577,7.979,9.577s7.979-4.31,7.979-9.577
	c0-5.26-3.593-22.34-7.979-22.34C390.289,259.272,386.697,276.352,386.697,281.612z M466.49,83.728v111.709
	c0,0,39.896,39.896,39.896,79.792v145.068l-10.934-56.174c-12.607-25.621-39.576-48.998-96.787-48.998
	c-78.281,0-99.982,40.216-105.726,73.574l-9.974-1.761c-31.761,4.948-25.777-33.756-15.959-55.855l55.855-135.647V75.749
	c0-8.86,7.099-15.958,15.958-15.958h111.71c8.852,0,15.959,7.099,15.959,15.958v7.979H466.49z"/>
<rect x="322.862" y="83.732" style="fill:#5C9EFF;" width="47.875" height="111.71"/>
<path style="fill:#D7E9FF;" d="M338.821,75.749v119.689l-55.854,135.647c-9.18,20.666-14.992,55.824,10.246,56.261
	c-0.085,0.452-0.194,0.903-0.272,1.355l-9.974-1.761c-31.761,4.948-25.777-33.756-15.959-55.855l55.855-135.647V75.749
	c0-8.86,7.099-15.958,15.958-15.958h15.959C345.92,59.79,338.821,66.889,338.821,75.749z"/>
<rect x="354.782" y="83.732" style="fill:#2287FF;" width="15.958" height="111.71"/>
<rect x="322.862" y="83.732" style="fill:#94C1FF;" width="15.958" height="111.71"/>
<g>
	<path style="fill:#5C9EFF;" d="M506.386,410.878v9.421l-0.148-0.771C506.379,416.427,506.386,413.497,506.386,410.878z"/>
	<path style="fill:#5C9EFF;" d="M495.453,364.125c-1.465-2.977-3.147-5.923-5.025-8.806V275.23
		c0-39.896-39.896-79.792-39.896-79.792V83.728v-7.979c0-8.86-7.106-15.958-15.959-15.958h15.959
		c8.852,0,15.959,7.099,15.959,15.958v7.979v111.709c0,0,39.896,39.896,39.896,79.792v120.126
		C505.927,382.671,503.799,380.909,495.453,364.125z"/>
</g>
<polygon style="fill:#94C1FF;" points="474.469,195.438 474.469,83.728 466.49,83.728 370.738,83.728 370.738,107.666 
	370.738,139.583 370.738,171.5 370.738,195.438 466.49,195.438 "/>
<path style="fill:#2287FF;" d="M394.677,259.272c-4.388,0-7.979,17.08-7.979,22.34c0,5.268,3.592,9.577,7.979,9.577
	s7.979-4.31,7.979-9.577C402.656,276.352,399.063,259.272,394.677,259.272z"/>
<path style="fill:#94C1FF;" d="M506.386,426.837c0-8.058,2.072-36.546-10.934-62.712c-12.607-25.621-39.576-48.998-96.787-48.998
	c-78.281,0-99.982,40.216-105.726,73.574c-2.797,16.037-1.994,30.39-1.994,38.136c0,23.938,0,71.813,107.72,71.813
	C506.386,498.65,506.386,450.774,506.386,426.837z"/>
<path style="fill:#D7E9FF;" d="M506.316,433.507c-0.601-12.537-2.898-29.424-10.863-45.444
	c-12.607-25.621-39.576-48.997-96.787-48.997c-78.281,0-99.982,40.215-105.726,73.574c-1.224,7.005-1.737,13.644-1.956,19.605
	c-0.03-1.902-0.038-3.725-0.038-5.408c0-7.746-0.803-22.099,1.994-38.136c5.743-33.358,27.444-73.574,105.726-73.574
	c57.211,0,84.18,23.377,96.787,48.998c13.006,26.166,10.934,54.654,10.934,62.712C506.386,428.893,506.379,431.137,506.316,433.507z
	"/>
<g>
	<path style="fill:#5C9EFF;" d="M398.666,474.712c98.455,0,106.918-39.981,107.65-65.143c0.374,7.933,0.07,14.15,0.07,17.268
		c0,23.938,0,71.813-107.721,71.813c-107.72,0-107.72-47.876-107.72-71.813c0-4.363-0.234-10.862,0.038-18.53
		C291.483,433.358,298.535,474.712,398.666,474.712z"/>
	<rect x="458.512" y="83.732" style="fill:#5C9EFF;" width="15.958" height="111.71"/>
</g>
<path style="fill:#94C1FF;" d="M139.535,251.293c4.387,0,7.979-17.077,7.979-22.341c0-5.268-3.592-9.576-7.979-9.576
	s-7.979,4.309-7.979,9.576C131.556,234.216,135.148,251.293,139.535,251.293z M211.348,434.816c0,8.859-7.107,15.958-15.958,15.958
	H83.68c-8.859,0-15.958-7.099-15.958-15.958V315.127L11.866,179.479c-9.818-22.103-15.803-60.803,15.959-55.855l9.974-1.757
	c5.743,33.355,27.444,73.571,105.726,73.571c57.211,0,84.18-23.38,96.787-48.994l10.933-56.179v145.068
	c0,39.896-39.896,79.793-39.896,79.793v111.71v7.98H211.348z"/>
<g>
	<path style="fill:#5C9EFF;" d="M251.244,99.686v-9.421l-0.147,0.771C251.237,94.142,251.244,97.064,251.244,99.686z"/>
	<path style="fill:#5C9EFF;" d="M240.312,162.403c-1.465,2.977-3.147,5.918-5.025,8.801v64.13c0,39.896-39.896,79.793-39.896,79.793
		v111.71v7.979c0,8.859-7.106,15.958-15.959,15.958h15.959c8.852,0,15.958-7.099,15.958-15.958v-7.979v-111.71
		c0,0,39.896-39.896,39.896-79.793V115.205C250.785,127.898,248.657,145.614,240.312,162.403z"/>
	<rect x="67.722" y="315.132" style="fill:#5C9EFF;" width="47.875" height="111.71"/>
</g>
<polygon style="fill:#94C1FF;" points="219.327,315.127 219.327,426.837 211.348,426.837 115.597,426.837 115.597,402.899 
	115.597,370.981 115.597,339.065 115.597,315.127 211.348,315.127 "/>
<path style="fill:#2287FF;" d="M139.535,251.293c-4.387,0-7.979-17.077-7.979-22.341c0-5.268,3.592-9.576,7.979-9.576
	s7.979,4.309,7.979,9.576C147.514,234.216,143.922,251.293,139.535,251.293z"/>
<path style="fill:#94C1FF;" d="M251.244,83.728c0,8.057,2.073,36.545-10.933,62.716c-12.607,25.613-39.576,48.994-96.787,48.994
	c-78.281,0-99.982-40.216-105.726-73.571c-2.797-16.036-1.995-30.397-1.995-38.139c0-23.938,0-71.813,107.72-71.813
	C251.244,11.915,251.244,59.79,251.244,83.728z"/>
<path style="fill:#5C9EFF;" d="M251.175,77.054c-0.6,12.542-2.899,29.423-10.863,45.452c-12.607,25.613-39.576,48.994-96.787,48.994
	c-78.281,0-99.982-40.216-105.726-73.57c-1.223-7.009-1.737-13.648-1.956-19.605c-0.031,1.901-0.039,3.717-0.039,5.404
	c0,7.741-0.803,22.103,1.995,38.139c5.743,33.355,27.444,73.571,105.726,73.571c57.211,0,84.18-23.38,96.787-48.994
	c13.006-26.17,10.933-54.659,10.933-62.716C251.244,81.671,251.237,79.423,251.175,77.054z"/>
<path style="fill:#D7E9FF;" d="M143.525,35.852c98.455,0,106.917,39.982,107.65,65.14c0.374-7.933,0.07-14.143,0.07-17.264
	c0-23.938,0-71.813-107.72-71.813S35.805,59.79,35.805,83.728c0,4.359-0.234,10.862,0.039,18.534
	C36.342,77.206,43.394,35.852,143.525,35.852z"/>
<g>
	<path style="fill:#116FFF;" d="M331.162,175.49c-2.205,0-4.029-1.785-4.029-3.99s1.746-3.989,3.943-3.989h0.086
		c2.197,0,3.989,1.784,3.989,3.989S333.359,175.49,331.162,175.49z"/>
	<path style="fill:#116FFF;" d="M331.162,143.573c-2.205,0-4.029-1.785-4.029-3.99s1.746-3.989,3.943-3.989h0.086
		c2.197,0,3.989,1.784,3.989,3.989S333.359,143.573,331.162,143.573z"/>
	<path style="fill:#116FFF;" d="M331.162,111.656c-2.205,0-4.029-1.785-4.029-3.99s1.746-3.99,3.943-3.99h0.086
		c2.197,0,3.989,1.785,3.989,3.99S333.359,111.656,331.162,111.656z"/>
	<path style="fill:#116FFF;" d="M347.12,159.531c-2.205,0-4.028-1.784-4.028-3.989c0-2.206,1.745-3.99,3.943-3.99h0.085
		c2.197,0,3.989,1.785,3.989,3.99S349.317,159.531,347.12,159.531z"/>
	<path style="fill:#116FFF;" d="M347.12,127.614c-2.205,0-4.028-1.784-4.028-3.99c0-2.205,1.745-3.99,3.943-3.99h0.085
		c2.197,0,3.989,1.785,3.989,3.99C351.109,125.83,349.317,127.614,347.12,127.614z"/>
	<path style="fill:#116FFF;" d="M363.079,175.49c-2.206,0-4.028-1.785-4.028-3.99s1.745-3.989,3.942-3.989h0.086
		c2.197,0,3.989,1.784,3.989,3.989S365.276,175.49,363.079,175.49z"/>
	<path style="fill:#116FFF;" d="M363.079,143.573c-2.206,0-4.028-1.785-4.028-3.99s1.745-3.989,3.942-3.989h0.086
		c2.197,0,3.989,1.784,3.989,3.989S365.276,143.573,363.079,143.573z"/>
	<path style="fill:#116FFF;" d="M363.079,111.656c-2.206,0-4.028-1.785-4.028-3.99s1.745-3.99,3.942-3.99h0.086
		c2.197,0,3.989,1.785,3.989,3.99S365.276,111.656,363.079,111.656z"/>
	<path style="fill:#116FFF;" d="M322.941,199.428c-2.205,0-3.99-1.784-3.99-3.99V75.749c0-2.205,1.785-3.99,3.99-3.99
		s3.989,1.785,3.989,3.99v119.689C326.93,197.643,325.146,199.428,322.941,199.428z"/>
	<path style="fill:#116FFF;" d="M322.941,79.738c-2.205,0-3.99-1.784-3.99-3.989c0-10.999,8.945-19.948,19.948-19.948
		c2.205,0,3.989,1.784,3.989,3.99c0,2.205-1.784,3.99-3.989,3.99c-6.6,0-11.969,5.369-11.969,11.969
		C326.93,77.954,325.146,79.738,322.941,79.738z"/>
	<path style="fill:#116FFF;" d="M466.568,79.738c-2.206,0-3.99-1.784-3.99-3.989c0-6.6-5.369-11.969-11.969-11.969
		c-2.205,0-3.99-1.785-3.99-3.99c0-2.206,1.785-3.99,3.99-3.99c11.002,0,19.948,8.949,19.948,19.948
		C470.557,77.954,468.773,79.738,466.568,79.738z"/>
	<path style="fill:#116FFF;" d="M450.609,63.78h-111.71c-2.205,0-3.989-1.785-3.989-3.99c0-2.206,1.784-3.99,3.989-3.99h111.71
		c2.205,0,3.989,1.784,3.989,3.99C454.598,61.995,452.814,63.78,450.609,63.78z"/>
	<path style="fill:#116FFF;" d="M474.547,87.718h-103.73c-2.205,0-3.989-1.784-3.989-3.989c0-2.206,1.784-3.99,3.989-3.99h103.73
		c2.205,0,3.99,1.785,3.99,3.99C478.537,85.933,476.752,87.718,474.547,87.718z"/>
	<path style="fill:#116FFF;" d="M370.816,199.428c-2.205,0-3.989-1.784-3.989-3.99V83.728c0-2.206,1.784-3.99,3.989-3.99
		s3.99,1.785,3.99,3.99v111.709C374.806,197.643,373.021,199.428,370.816,199.428z"/>
	<path style="fill:#116FFF;" d="M474.547,199.428h-103.73c-2.205,0-3.989-1.784-3.989-3.99s1.784-3.99,3.989-3.99h103.73
		c2.205,0,3.99,1.784,3.99,3.99S476.752,199.428,474.547,199.428z"/>
	<path style="fill:#116FFF;" d="M474.547,199.428c-2.205,0-3.989-1.784-3.989-3.99V83.728c0-2.206,1.784-3.99,3.989-3.99
		s3.99,1.785,3.99,3.99v111.709C478.537,197.643,476.752,199.428,474.547,199.428z"/>
	<path style="fill:#116FFF;" d="M386.775,175.49h-15.959c-2.205,0-3.989-1.785-3.989-3.99s1.784-3.989,3.989-3.989h15.959
		c2.205,0,3.989,1.784,3.989,3.989S388.98,175.49,386.775,175.49z"/>
	<path style="fill:#116FFF;" d="M386.775,143.573h-15.959c-2.205,0-3.989-1.785-3.989-3.99s1.784-3.989,3.989-3.989h15.959
		c2.205,0,3.989,1.784,3.989,3.989S388.98,143.573,386.775,143.573z"/>
	<path style="fill:#116FFF;" d="M386.775,111.656h-15.959c-2.205,0-3.989-1.785-3.989-3.99s1.784-3.99,3.989-3.99h15.959
		c2.205,0,3.989,1.785,3.989,3.99S388.98,111.656,386.775,111.656z"/>
	<path style="fill:#116FFF;" d="M506.464,279.22c-2.205,0-3.989-1.784-3.989-3.989c0-37.808-38.338-76.586-38.728-76.972
		c-1.559-1.559-1.559-4.083,0-5.642s4.083-1.559,5.642,0c1.676,1.675,41.065,41.537,41.065,82.613
		C510.454,277.435,508.67,279.22,506.464,279.22z"/>
	<path style="fill:#116FFF;" d="M267.086,335.075c-0.506,0-1.021-0.094-1.52-0.304c-2.033-0.834-3.008-3.164-2.166-5.205
		l55.854-135.648c0.842-2.038,3.172-2.992,5.206-2.17c2.033,0.838,3.008,3.172,2.166,5.209l-55.855,135.647
		C270.14,334.147,268.652,335.075,267.086,335.075z"/>
	<path style="fill:#116FFF;" d="M506.464,366.992c-2.205,0-3.989-1.784-3.989-3.989v-87.772c0-2.205,1.784-3.989,3.989-3.989
		c2.206,0,3.99,1.784,3.99,3.989v87.772C510.454,365.208,508.67,366.992,506.464,366.992z"/>
	<path style="fill:#116FFF;" d="M398.744,502.639c-111.71,0-111.71-51.195-111.71-75.803c0-2.205,1.784-3.99,3.989-3.99
		s3.99,1.785,3.99,3.99c0,23.704,0,67.824,103.73,67.824s103.73-44.12,103.73-67.824c0-2.205,1.784-3.99,3.989-3.99
		c2.206,0,3.99,1.785,3.99,3.99C510.454,451.444,510.454,502.639,398.744,502.639z"/>
	<path style="fill:#116FFF;" d="M506.464,430.826c-2.205,0-3.989-1.784-3.989-3.989l0.047-3.039
		c0.28-14.143,1.028-51.717-24.569-77.829c-17.462-17.821-44.112-26.853-79.208-26.853c-36.305,0-63.452,8.876-80.674,26.369
		c-23.93,24.313-23.376,59.813-23.104,76.879l0.047,4.473c0,2.205-1.785,3.989-3.99,3.989s-3.989-1.784-3.989-3.989l-0.047-4.348
		c-0.288-18.148-0.88-55.91,25.396-82.599c18.779-19.075,47.836-28.753,86.361-28.753c37.316,0,65.883,9.842,84.912,29.244
		c27.936,28.504,27.109,69.959,26.836,83.572l-0.038,2.883C510.454,429.042,508.67,430.826,506.464,430.826z"/>
	<path style="fill:#116FFF;" d="M277.855,391.358c-9.266,0-14.479-4.013-17.322-7.714c-10.582-13.815-3.148-40.559,2.906-54.18
		c0.896-2.019,3.249-2.914,5.268-2.026c2.01,0.896,2.922,3.258,2.025,5.268c-6.974,15.686-10.698,37.162-3.864,46.084
		c3.062,3.989,8.174,5.385,15.561,4.207c2.167-0.312,4.216,1.146,4.559,3.328c0.335,2.174-1.153,4.215-3.327,4.559
		C281.564,391.211,279.639,391.358,277.855,391.358z"/>
	<path style="fill:#116FFF;" d="M394.754,263.261c-2.205,0-3.989-1.784-3.989-3.989v-31.917c0-2.205,1.784-3.99,3.989-3.99
		s3.99,1.785,3.99,3.99v31.917C398.744,261.477,396.959,263.261,394.754,263.261z"/>
	<path style="fill:#116FFF;" d="M394.754,295.178c-6.6,0-11.969-6.086-11.969-13.574c0-0.265,1.84-26.322,11.969-26.322
		c10.131,0,11.97,26.058,11.97,26.322C406.723,289.093,401.354,295.178,394.754,295.178z M394.754,264.579
		c-1.908,3.872-3.989,12.795-3.989,17.025c0,3.031,1.823,5.596,3.989,5.596c2.167,0,3.99-2.564,3.99-5.596
		C398.744,277.374,396.664,268.451,394.754,264.579z"/>
	<path style="fill:#116FFF;" d="M434.65,183.469c-2.205,0-3.989-1.784-3.989-3.989V99.687c0-2.205,1.784-3.989,3.989-3.989
		s3.99,1.784,3.99,3.989v79.793C438.64,181.684,436.855,183.469,434.65,183.469z"/>
</g>
<path style="fill:#D7E9FF;" d="M83.68,434.816V315.127L27.825,179.479c-9.18-20.665-14.993-55.82,10.247-56.264
	c-0.085-0.448-0.195-0.904-0.273-1.349l-9.974,1.757c-31.762-4.948-25.777,33.752-15.959,55.855l55.855,135.647v119.689
	c0,8.859,7.099,15.958,15.958,15.958h15.958C90.779,450.774,83.68,443.676,83.68,434.816z"/>
<rect x="203.372" y="315.132" style="fill:#5C9EFF;" width="15.958" height="111.71"/>
<rect x="99.642" y="315.132" style="fill:#2287FF;" width="15.958" height="111.71"/>
<rect x="67.722" y="315.132" style="fill:#94C1FF;" width="15.958" height="111.71"/>
<g>
	<path style="fill:#116FFF;" d="M75.943,343.054c-2.206,0-4.029-1.784-4.029-3.989c0-2.206,1.746-3.99,3.943-3.99h0.086
		c2.197,0,3.989,1.784,3.989,3.99C79.932,341.27,78.14,343.054,75.943,343.054z"/>
	<path style="fill:#116FFF;" d="M75.943,374.971c-2.206,0-4.029-1.785-4.029-3.99s1.746-3.989,3.943-3.989h0.086
		c2.197,0,3.989,1.784,3.989,3.989S78.14,374.971,75.943,374.971z"/>
	<path style="fill:#116FFF;" d="M75.943,406.888c-2.206,0-4.029-1.784-4.029-3.989s1.746-3.99,3.943-3.99h0.086
		c2.197,0,3.989,1.785,3.989,3.99S78.14,406.888,75.943,406.888z"/>
	<path style="fill:#116FFF;" d="M91.901,359.012c-2.205,0-4.028-1.784-4.028-3.989s1.745-3.989,3.943-3.989h0.085
		c2.197,0,3.99,1.784,3.99,3.989S94.098,359.012,91.901,359.012z"/>
	<path style="fill:#116FFF;" d="M91.901,390.93c-2.205,0-4.028-1.785-4.028-3.99s1.745-3.989,3.943-3.989h0.085
		c2.197,0,3.99,1.784,3.99,3.989S94.098,390.93,91.901,390.93z"/>
	<path style="fill:#116FFF;" d="M107.86,343.054c-2.206,0-4.029-1.784-4.029-3.989c0-2.206,1.746-3.99,3.943-3.99h0.086
		c2.197,0,3.989,1.784,3.989,3.99C111.849,341.27,110.057,343.054,107.86,343.054z"/>
	<path style="fill:#116FFF;" d="M107.86,374.971c-2.206,0-4.029-1.785-4.029-3.99s1.746-3.989,3.943-3.989h0.086
		c2.197,0,3.989,1.784,3.989,3.989S110.057,374.971,107.86,374.971z"/>
	<path style="fill:#116FFF;" d="M107.86,406.888c-2.206,0-4.029-1.784-4.029-3.989s1.746-3.99,3.943-3.99h0.086
		c2.197,0,3.989,1.785,3.989,3.99S110.057,406.888,107.86,406.888z"/>
	<path style="fill:#116FFF;" d="M67.721,438.805c-2.205,0-3.99-1.784-3.99-3.989V315.127c0-2.205,1.785-3.989,3.99-3.989
		c2.206,0,3.99,1.784,3.99,3.989v119.689C71.711,437.021,69.927,438.805,67.721,438.805z"/>
	<path style="fill:#116FFF;" d="M83.68,454.764c-11.003,0-19.948-8.945-19.948-19.948c0-2.206,1.785-3.99,3.99-3.99
		c2.206,0,3.99,1.784,3.99,3.99c0,6.709,5.26,11.969,11.969,11.969c2.205,0,3.99,1.784,3.99,3.989S85.885,454.764,83.68,454.764z"/>
	<path style="fill:#116FFF;" d="M195.39,454.764c-2.205,0-3.99-1.785-3.99-3.99s1.785-3.989,3.99-3.989
		c6.6,0,11.969-5.369,11.969-11.969c0-2.206,1.784-3.99,3.99-3.99c2.205,0,3.99,1.784,3.99,3.99
		C215.338,445.819,206.392,454.764,195.39,454.764z"/>
	<path style="fill:#116FFF;" d="M195.39,454.764H83.68c-2.205,0-3.989-1.785-3.989-3.99s1.784-3.989,3.989-3.989h111.71
		c2.205,0,3.989,1.784,3.989,3.989S197.595,454.764,195.39,454.764z"/>
	<path style="fill:#116FFF;" d="M219.327,430.826h-103.73c-2.205,0-3.989-1.784-3.989-3.989s1.784-3.99,3.989-3.99h103.73
		c2.205,0,3.99,1.785,3.99,3.99S221.532,430.826,219.327,430.826z"/>
	<path style="fill:#116FFF;" d="M115.597,430.826c-2.205,0-3.989-1.784-3.989-3.989v-111.71c0-2.205,1.784-3.989,3.989-3.989
		s3.99,1.784,3.99,3.989v111.71C119.587,429.042,117.802,430.826,115.597,430.826z"/>
	<path style="fill:#116FFF;" d="M219.327,319.116h-103.73c-2.205,0-3.989-1.784-3.989-3.989s1.784-3.989,3.989-3.989h103.73
		c2.205,0,3.99,1.784,3.99,3.989S221.532,319.116,219.327,319.116z"/>
	<path style="fill:#116FFF;" d="M219.327,430.826c-2.205,0-3.989-1.784-3.989-3.989v-111.71c0-2.205,1.784-3.989,3.989-3.989
		s3.99,1.784,3.99,3.989v111.71C223.317,429.042,221.532,430.826,219.327,430.826z"/>
	<path style="fill:#116FFF;" d="M131.556,343.054h-15.959c-2.205,0-3.989-1.784-3.989-3.989c0-2.206,1.784-3.99,3.989-3.99h15.959
		c2.205,0,3.989,1.784,3.989,3.99C135.545,341.27,133.761,343.054,131.556,343.054z"/>
	<path style="fill:#116FFF;" d="M131.556,374.971h-15.959c-2.205,0-3.989-1.785-3.989-3.99s1.784-3.989,3.989-3.989h15.959
		c2.205,0,3.989,1.784,3.989,3.989S133.761,374.971,131.556,374.971z"/>
	<path style="fill:#116FFF;" d="M131.556,406.888h-15.959c-2.205,0-3.989-1.784-3.989-3.989s1.784-3.99,3.989-3.99h15.959
		c2.205,0,3.989,1.785,3.989,3.99S133.761,406.888,131.556,406.888z"/>
	<path style="fill:#116FFF;" d="M211.348,319.116c-1.021,0-2.042-0.389-2.821-1.168c-1.559-1.559-1.559-4.084,0-5.643
		c0.39-0.389,38.728-39.226,38.728-76.972c0-2.205,1.784-3.989,3.989-3.989c2.206,0,3.99,1.784,3.99,3.989
		c0,41.073-39.39,80.938-41.065,82.614C213.39,318.727,212.369,319.116,211.348,319.116z"/>
	<path style="fill:#116FFF;" d="M67.721,319.116c-1.566,0-3.054-0.927-3.686-2.47L8.181,180.999
		c-0.842-2.038,0.132-4.372,2.166-5.209c2.05-0.818,4.372,0.14,5.205,2.17l55.855,135.647c0.841,2.042-0.133,4.372-2.167,5.205
		C68.742,319.023,68.228,319.116,67.721,319.116z"/>
	<path style="fill:#116FFF;" d="M251.244,239.324c-2.205,0-3.989-1.785-3.989-3.99v-87.772c0-2.205,1.784-3.99,3.989-3.99
		c2.206,0,3.99,1.785,3.99,3.99v87.771C255.235,237.539,253.45,239.324,251.244,239.324z"/>
	<path style="fill:#116FFF;" d="M251.244,87.718c-2.205,0-3.989-1.784-3.989-3.989c0-23.704,0-67.824-103.73-67.824
		s-103.73,44.12-103.73,67.824c0,2.205-1.785,3.989-3.99,3.989c-2.206,0-3.99-1.784-3.99-3.989c0-24.604,0-75.804,111.71-75.804
		s111.71,51.199,111.71,75.804C255.235,85.933,253.45,87.718,251.244,87.718z"/>
	<path style="fill:#116FFF;" d="M143.525,199.428c-63.078,0-100.996-26.587-109.661-76.882c-2.4-13.789-2.213-26.307-2.096-34.594
		l0.047-4.223c0-2.206,1.784-3.99,3.99-3.99c2.205,0,3.99,1.785,3.99,3.99l-0.047,4.344c-0.117,7.983-0.296,20.054,1.979,33.109
		c8.033,46.629,42.28,70.267,101.798,70.267c46.574,0,77.93-15.732,93.211-46.765c11.283-22.71,10.776-47.365,10.566-57.893
		l-0.047-3.062c0-2.206,1.784-3.99,3.989-3.99c2.206,0,3.99,1.785,3.99,3.99l0.048,2.898c0.226,11.116,0.756,37.142-11.393,61.594
		C227.158,182.195,193.395,199.428,143.525,199.428z"/>
	<path style="fill:#116FFF;" d="M11.866,183.469c-1.527,0-2.984-0.884-3.646-2.368c-6.047-13.625-13.465-40.36-2.891-54.172
		c3.39-4.422,10.13-9.277,23.112-7.247c2.174,0.339,3.662,2.381,3.327,4.559c-0.335,2.182-2.446,3.65-4.559,3.327
		c-7.379-1.138-12.491,0.226-15.545,4.212c-6.834,8.922-3.117,30.401,3.849,46.079c0.896,2.015-0.016,4.372-2.026,5.268
		C12.957,183.36,12.412,183.469,11.866,183.469z"/>
	<path style="fill:#116FFF;" d="M139.535,287.2c-2.206,0-3.99-1.785-3.99-3.99v-31.917c0-2.205,1.784-3.99,3.99-3.99
		c2.205,0,3.99,1.785,3.99,3.99v31.917C143.525,285.415,141.74,287.2,139.535,287.2z"/>
	<path style="fill:#116FFF;" d="M139.535,255.282c-10.13,0-11.969-26.064-11.969-26.33c0-7.48,5.369-13.566,11.969-13.566
		s11.969,6.085,11.969,13.566C151.504,229.218,149.665,255.282,139.535,255.282z M139.535,223.365c-2.127,0-3.99,2.61-3.99,5.587
		c0,4.103,2.104,13.072,3.99,16.987c1.886-3.916,3.99-12.884,3.99-16.987C143.525,225.975,141.662,223.365,139.535,223.365z"/>
	<path style="fill:#116FFF;" d="M179.431,414.868c-2.205,0-3.989-1.785-3.989-3.99v-79.793c0-2.205,1.784-3.989,3.989-3.989
		c2.206,0,3.99,1.784,3.99,3.989v79.793C183.421,413.083,181.636,414.868,179.431,414.868z"/>
</g>
<g>
</g>
<g>
</g>
<g>
</g>
<g>
</g>
<g>
</g>
<g>
</g>
<g>
</g>
<g>
</g>
<g>
</g>
<g>
</g>
<g>
</g>
<g>
</g>
<g>
</g>
<g>
</g>
<g>
</g>
</svg>
