<svg height="512pt" viewBox="-25 0 512 512.00893" width="512pt" xmlns="http://www.w3.org/2000/svg"><path d="m213.867188 369.605469c-.824219 55.882812-46.78125 100.527343-102.664063 99.730469-55.886719.796874-101.84375-43.847657-102.664063-99.730469 0-55.082031 102.664063-190.40625 102.664063-190.40625s102.664063 135.324219 102.664063 190.40625zm0 0" fill="#e3e7f2"/><path d="m110.9375 426.667969c-28.976562-.773438-51.871094-24.839844-51.199219-53.820313 0-17.714844 23.945313-64.691406 51.199219-108.3125 27.246094 43.621094 51.199219 90.597656 51.199219 108.3125.675781 28.980469-22.21875 53.046875-51.199219 53.820313zm0 0" fill="#d4e1f4"/><path d="m145.601562 145.066406c0 18.851563-15.285156 34.132813-34.132812 34.132813-18.851562 0-34.136719-15.28125-34.136719-34.132813 0-18.851562 15.285157-34.132812 34.136719-34.132812 18.847656 0 34.132812 15.28125 34.132812 34.132812zm0 0" fill="#e3e7f2"/><path d="m452.800781 403.710938c-1.601562 55.542968-47.089843 99.742187-102.65625 99.742187-55.566406 0-101.054687-44.199219-102.65625-99.742187 0-43.007813 62.71875-135.167969 90.113281-173.308594 7.679688-10.667969 12.542969-17.066406 12.542969-17.066406s102.65625 135.335937 102.65625 190.375zm0 0" fill="#d4e1f4"/><path d="m427.710938 403.710938c-.582032 51.078124-39.316407 93.625-90.109376 98.988281-50.796874-5.363281-89.53125-47.910157-90.113281-98.988281 0-43.007813 62.71875-135.167969 90.113281-173.308594 27.390626 38.140625 90.109376 130.300781 90.109376 173.308594zm0 0" fill="#e3e7f2"/><path d="m349.871094 460.800781c-28.976563-.773437-51.875-24.839843-51.199219-53.820312 0-17.714844 23.945313-64.691407 51.199219-108.3125 27.246094 43.621093 51.199218 90.597656 51.199218 108.3125.675782 28.980469-22.21875 53.046875-51.199218 53.820312zm0 0" fill="#d4e1f4"/><path d="m384.535156 179.199219c0 18.851562-15.285156 34.136719-34.136718 34.136719-4.394532.03125-8.753907-.839844-12.796876-2.5625-12.890624-5.183594-21.335937-17.679688-21.335937-31.574219 0-13.890625 8.445313-26.386719 21.335937-31.570313 4.042969-1.722656 8.402344-2.59375 12.796876-2.5625 9.054687 0 17.738281 3.597656 24.136718 10 6.402344 6.398438 10 15.082032 10 24.132813zm0 0" fill="#d4e1f4"/><path d="m358.933594 179.199219c0-17.4375-9.550782-31.570313-21.332032-31.570313-11.785156 0-21.335937 14.132813-21.335937 31.570313s9.550781 31.574219 21.335937 31.574219c11.78125 0 21.332032-14.136719 21.332032-31.574219zm0 0" fill="#e3e7f2"/><path d="m213.867188 369.578125c-.816407 55.890625-46.765626 100.542969-102.65625 99.757813-26.84375.390624-52.746094-9.898438-72-28.609376-19.253907-18.707031-30.28125-44.304687-30.65625-71.148437.136718-6.390625 1.140624-12.734375 2.988281-18.859375 11.949219 45.128906 52.988281 76.398438 99.667969 75.949219 46.6875.476562 87.742187-30.804688 99.667968-75.949219 1.847656 6.125 2.851563 12.46875 2.988282 18.859375zm0 0" fill="#d4e1f4"/><path d="m452.800781 403.710938c-1.601562 55.542968-47.089843 99.742187-102.65625 99.742187-55.566406 0-101.054687-44.199219-102.65625-99.742187.136719-6.390626 1.140625-12.734376 2.988281-18.855469 12.339844 44.863281 53.136719 75.949219 99.667969 75.949219s87.324219-31.085938 99.667969-75.949219c1.847656 6.121093 2.851562 12.464843 2.988281 18.855469zm0 0" fill="#d4e1f4"/><g fill="#fff"><path d="m248.230469 394.933594c-.46875 2.902344-.71875 5.835937-.742188 8.777344 0 3.328124.1875 6.605468.511719 9.847656.101562 1.085937.316406 2.125.460938 3.191406.289062 2.144531.570312 4.269531 1 6.375.253906 1.253906.605468 2.476562.910156 3.722656.453125 1.851563.898437 3.710938 1.460937 5.527344.402344 1.296875.851563 2.5625 1.324219 3.824219.605469 1.707031 1.210938 3.414062 1.902344 5.058593.535156 1.28125 1.132812 2.5625 1.707031 3.789063.742187 1.578125 1.492187 3.140625 2.3125 4.667969.671875 1.265625 1.390625 2.492187 2.125 3.714844.851563 1.457031 1.703125 2.882812 2.675781 4.265624.804688 1.210938 1.632813 2.398438 2.484375 3.574219.980469 1.332031 1.988281 2.644531 3.03125 3.933594.929688 1.144531 1.867188 2.277344 2.847657 3.414063.984374 1.136718 2.195312 2.398437 3.328124 3.566406 1.136719 1.167968 2.101563 2.152344 3.191407 3.175781 1.09375 1.023437 2.390625 2.140625 3.609375 3.191406 1.222656 1.046875 2.324218 1.996094 3.535156 2.941407 1.210938.949218 2.558594 1.863281 3.8125 2.773437 1.253906.914063 2.5625 1.84375 3.875 2.699219 1.3125.851562 2.636719 1.5625 3.960938 2.335937 1.320312.777344 2.796874 1.707031 4.265624 2.433594 1.246094.648437 2.558594 1.1875 3.824219 1.78125 6.242188 2.917969 12.757813 5.207031 19.453125 6.828125 1.144532.273438 2.261719.613281 3.414063.855469 1.953125.40625 3.960937.671875 5.972656.972656 1.042969.152344 2.058594.382813 3.117187.511719h.554688c8.179688 1.011718 16.460938.976562 24.632812-.105469-.910156-.109375-1.800781-.304687-2.703124-.441406-1.996094-.300781-4.003907-.5625-5.972657-.972657-1.160156-.238281-2.28125-.582031-3.414062-.855468-6.695313-1.621094-13.214844-3.910156-19.457031-6.824219-1.28125-.597656-2.558594-1.136719-3.820313-1.785156-1.460937-.757813-2.84375-1.613281-4.269531-2.429688-1.425782-.820312-2.671875-1.511719-3.957032-2.339843-1.289062-.828126-2.5625-1.785157-3.875-2.695313-1.316406-.914063-2.5625-1.808594-3.816406-2.773437-1.253906-.964844-2.363281-1.957032-3.53125-2.945313-1.167968-.988281-2.441406-2.089844-3.609375-3.191406-1.167969-1.101563-2.140625-2.097657-3.191406-3.175781-1.050781-1.074219-2.253906-2.34375-3.328125-3.566407-1.074219-1.21875-1.921875-2.242187-2.851562-3.414062-1.039063-1.285157-2.050782-2.59375-3.027344-3.933594-.855469-1.175781-1.707032-2.363281-2.484375-3.574219-.9375-1.40625-1.824219-2.832031-2.679688-4.265625-.734375-1.222656-1.449219-2.449219-2.125-3.710937-.851562-1.53125-1.570312-3.089844-2.3125-4.667969-.589843-1.257813-1.183593-2.511719-1.707031-3.789063-.691406-1.707031-1.296875-3.355468-1.902344-5.0625-.441406-1.269531-.921875-2.558593-1.320312-3.820312-.566406-1.820312-1.007813-3.679688-1.460938-5.53125-.308594-1.246094-.65625-2.464844-.914062-3.71875-.425782-2.09375-.707032-4.269531-.996094-6.375-.148438-1.066406-.359375-2.109375-.460938-3.191406-.324218-3.242188-.511718-6.519532-.511718-9.847656.023437-2.941407.273437-5.878907.742187-8.78125.074219-.488282.238281-1.035157.324219-1.527344 8.027344-45.875 63.28125-127.097656 88.746094-162.621094-7.757813-10.820312-12.757813-17.414062-12.757813-17.414062s-4.863281 6.398437-12.542969 17.066406c-25.378906 35.335937-80.992187 116.972656-89.046874 162.984375-.085938.511719-.246094 1.058593-.324219 1.546875zm0 0"/><path d="m337.601562 147.628906c-12.890624 5.183594-21.335937 17.679688-21.335937 31.570313 0 13.894531 8.445313 26.390625 21.335937 31.574219 4.042969 1.722656 8.402344 2.59375 12.796876 2.5625 4.410156-.015626 8.773437-.886719 12.851562-2.5625h-.050781c-12.886719-5.183594-21.332031-17.679688-21.332031-31.574219 0-13.890625 8.445312-26.386719 21.332031-31.570313h.050781c-4.078125-1.679687-8.441406-2.546875-12.851562-2.5625-4.394532-.03125-8.753907.839844-12.796876 2.5625zm0 0"/><path d="m111.46875 179.199219c4.390625-.015625 8.738281-.886719 12.796875-2.558594-12.894531-5.191406-21.339844-17.699219-21.339844-31.597656 0-13.902344 8.445313-26.40625 21.339844-31.601563-12.769531-5.183594-27.402344-2.183594-37.101563 7.613282-9.695312 9.792968-12.550781 24.457031-7.234374 37.175781 5.3125 12.714843 17.753906 20.988281 31.539062 20.96875zm0 0"/><path d="m8.539062 369.605469c.023438 21.515625 7.183594 42.414062 20.351563 59.425781 18.359375 23.804688 46.191406 38.414062 76.210937 40.003906 2.03125.121094 4.035157.300782 6.101563.300782 4.277344-.03125 8.554687-.316407 12.800781-.855469-27.539062-3.257813-52.597656-17.480469-69.515625-39.449219-13.167969-17.011719-20.324219-37.910156-20.351562-59.425781.039062-2.789063.28125-5.570313.726562-8.320313.050781-.382812.101563-.742187.160157-1.125 7.484374-45.75 63.328124-127.738281 88.980468-163.492187-7.792968-10.863281-12.800781-17.46875-12.800781-17.46875s-92.015625 121.3125-101.777344 180.960937c-.058593.382813-.113281.742188-.164062 1.125-.441407 2.75-.683594 5.53125-.722657 8.320313zm0 0"/><path d="m117.996094 184.320312c-21.847656 29.304688-42.617188 59.851563-61.441406 91.160157-9.085938 15.199219-17.554688 30.722656-25.019532 46.507812-7.695312 14.839844-12.59375 30.96875-14.445312 47.582031h-17.0664065c.3125005-5.046874.9335935-10.070312 1.8593745-15.042968 1.261719-4.609375 2.175782-9.480469 3.777344-13.867188 1.605469-4.386718 3.125-8.847656 4.832032-13.175781l5.539062-12.605469c7.832031-16.585937 16.5625-32.542968 25.847656-48.09375 19.308594-32.050781 40.164063-62.734375 62.523438-92.714844zm0 0"/></g><path d="m67.289062 242.195312c1.910157 1.199219 4.199219 1.640626 6.417969 1.226563 2.183594-.515625 4.101563-1.816406 5.382813-3.660156 1.214844-1.890625 1.671875-4.171875 1.273437-6.382813l-.496093-1.5625c-.21875-.53125-.503907-1.035156-.851563-1.492187-.269531-.472657-.605469-.90625-1-1.28125-.417969-.390625-.859375-.757813-1.320313-1.089844-1.894531-1.234375-4.1875-1.703125-6.410156-1.308594-2.847656.507813-5.238281 2.441407-6.324218 5.125-1.082032 2.679688-.714844 5.734375.980468 8.078125.621094.929688 1.417969 1.726563 2.347656 2.347656zm0 0" fill="#428dff"/><path d="m111.203125 477.867188c60.570313.730468 110.308594-47.695313 111.195313-108.261719 0-48.460938-71.617188-150.800781-96.289063-184.621094 17.933594-6.507813 29.339844-24.15625 27.917969-43.179687-1.421875-19.023438-15.328125-34.777344-34.027344-38.550782v-32.714844l6.390625-11.199218c7.101563-12.253906 7.046875-27.378906-.136719-39.585938-7.03125-12.285156-20.136718-19.8359372-34.292968-19.753906-17.492188.0859375-32.886719 11.542969-37.992188 28.273438-.105469.34375-.1875.699218-.246094 1.054687l-6.828125 41.371094c-2.148437 13.164062-7.097656 25.714843-14.507812 36.804687l-21.886719 32.828125c-2.613281 3.921875-1.558594 9.21875 2.363281 11.835938 3.921875 2.613281 9.222657 1.554687 11.835938-2.363281l21.914062-32.835938c8.769531-13.113281 14.617188-27.953125 17.152344-43.523438l6.742187-40.753906c3.054688-9.273437 11.6875-15.5625 21.453126-15.625 8.054687 0 15.5 4.285156 19.542968 11.25 4.042969 6.964844 4.074219 15.558594.082032 22.550782l-7.527344 13.132812c-.746094 1.296875-1.132813 2.769531-1.125 4.265625v34.988281c-18.644532 3.761719-32.53125 19.441406-34.015625 38.40625-1.480469 18.960938 9.796875 36.609375 27.632812 43.222656-4.128906 5.667969-8.320312 11.308594-12.339843 17.066407-1.300782 1.855469-1.8125 4.152343-1.421876 6.382812.394532 2.230469 1.65625 4.214844 3.511719 5.515625 3.867188 2.652344 9.144531 1.722656 11.871094-2.09375 4.265625-6.109375 8.722656-12.105468 13.125-18.132812 27.1875 37.050781 77.449219 111.617187 90.734375 156.894531-5.988281 21.75-19.855469 40.492187-38.902344 52.582031 4.964844-9.308594 7.554688-19.699218 7.542969-30.25 0-27.417968-43.734375-98.800781-52.507813-112.835937-1.65625-2.367188-4.363281-3.773438-7.25-3.773438-2.890624 0-5.597656 1.40625-7.253906 3.773438-8.765625 14.035156-52.5 85.417969-52.5 112.835937-.015625 10.320313 2.449219 20.496094 7.195313 29.660156-18.539063-12.042968-32.042969-30.445312-37.972657-51.746093 2.953126-9.847657 6.660157-19.457031 11.09375-28.738281 7.464844-15.796876 15.929688-31.308594 25.019532-46.507813 1.382812-2.441406 2.925781-4.8125 4.386718-7.21875 2.0625-3.976563.703126-8.875-3.121093-11.210937-3.824219-2.339844-8.804688-1.324219-11.402344 2.328124-1.488281 2.457032-3.046875 4.863282-4.480469 7.363282-9.285156 15.53125-18.015625 31.488281-25.847656 48.101562l-5.554688 12.664063c-1.707031 4.328125-3.21875 8.789062-4.832031 13.175781-.917969 2.640625-1.695312 5.332031-2.320312 8.054688-.09375.300781-.171875.605468-.230469.914062-.402344 1.640625-.785156 3.285156-1.230469 4.898438-.921875 4.972656-1.542969 9.996093-1.85937475 15.042968.89843775 60.5625 50.63671875 108.972656 111.19921875 108.238282zm-25.335937-332.800782c0-14.136718 11.460937-25.597656 25.601562-25.597656 14.136719 0 25.597656 11.460938 25.597656 25.597656 0 14.140625-11.460937 25.601563-25.597656 25.601563-14.140625 0-25.601562-11.460938-25.601562-25.601563zm-17.597657 227.78125c0-12.886718 17.203125-49.765625 42.667969-91.996094 25.457031 42.230469 42.667969 79.109376 42.667969 91.996094.667969 24.242188-18.363281 44.472656-42.597657 45.285156h-.230468c-24.203125-.859374-43.175782-21.078124-42.507813-45.285156zm41.765625 62.292969c.304688 0 .59375.050781.902344.050781h.257812c36.785157.21875 71.320313-17.695312 92.328126-47.898437-9.492188 43.269531-48.027344 73.949219-92.320313 73.507812-44.277344.449219-82.804687-30.207031-92.3125-73.453125 20.777344 29.832032 54.785156 47.667969 91.144531 47.800782zm0 0" fill="#428dff"/><path d="m350.136719 512c60.570312.730469 110.308593-47.691406 111.195312-108.261719 0-48.460937-71.617187-150.800781-96.289062-184.617187 17.933593-6.511719 29.339843-24.160156 27.917969-43.183594-1.421876-19.023438-15.328126-34.777344-34.027344-38.550781v-32.714844l6.390625-11.195313c7.015625-12.277343 6.964843-27.355468-.128907-39.585937-7.097656-12.226563-20.164062-19.753906-34.300781-19.757813-17.492187.085938-32.890625 11.542969-37.992187 28.273438-.105469.347656-.1875.699219-.246094 1.058594l-6.828125 41.367187c-2.148437 13.164063-7.097656 25.714844-14.507813 36.804688l-21.886718 32.828125c-2.617188 3.921875-1.558594 9.21875 2.363281 11.835937 3.921875 2.613281 9.222656 1.558594 11.835937-2.363281l21.914063-32.835938c8.769531-13.113281 14.617187-27.953124 17.152344-43.519531l6.742187-40.757812c3.054688-9.273438 11.6875-15.5625 21.453125-15.625 8.050781 0 15.5 4.285156 19.542969 11.25 4.042969 6.964843 4.074219 15.558593.082031 22.550781l-7.527343 13.132812c-.746094 1.300782-1.132813 2.769532-1.125 4.269532v34.984375c-18.609376 3.773437-32.472657 19.40625-33.988282 38.332031s9.679688 36.570312 27.453125 43.253906c-21.53125 29.5-79.257812 111.789063-93.261719 164.40625 0 .066406 0 .125-.050781.203125-1.875 6.558594-2.910156 13.328125-3.082031 20.148438.878906 60.574219 50.621094 109.003906 111.199219 108.269531zm-.425781-59.734375c-24.179688-.859375-43.144532-21.042969-42.507813-45.226563 0-12.882812 17.203125-49.765624 42.667969-91.996093 25.453125 42.230469 42.667968 79.113281 42.667968 91.996093.636719 24.21875-18.386718 44.417969-42.601562 45.226563zm7.386718-158.105469c-1.660156-2.347656-4.355468-3.742187-7.230468-3.742187s-5.570313 1.394531-7.230469 3.742187c-8.765625 14.039063-52.5 85.421875-52.5 112.835938-.015625 10.324218 2.449219 20.496094 7.195312 29.664062-18.582031-12.070312-32.105469-30.519531-38.015625-51.875 13.21875-45.269531 63.597656-120.082031 90.820313-157.15625 27.210937 37.066406 77.566406 111.835938 90.800781 157.113282-5.996094 21.71875-19.851562 40.433593-38.875 52.507812 4.964844-9.308594 7.554688-19.703125 7.542969-30.253906 0-27.433594-43.734375-98.8125-52.507813-112.851563zm-6.960937 200.773438c-44.277344.449218-82.804688-30.207032-92.316407-73.453125 20.785157 29.824219 54.792969 47.65625 91.144532 47.785156.308594 0 .597656.050781.90625.050781h.257812c36.785156.21875 71.320313-17.695312 92.328125-47.898437-9.488281 43.273437-48.023437 73.957031-92.320312 73.515625zm-25.335938-315.734375c0-14.136719 11.460938-25.597657 25.597657-25.597657 14.140624 0 25.601562 11.460938 25.601562 25.597657 0 14.140625-11.460938 25.601562-25.601562 25.601562-14.136719 0-25.597657-11.460937-25.597657-25.601562zm0 0" fill="#428dff"/></svg>