<svg height="480pt" viewBox="-16 0 480 480.08014" width="480pt" xmlns="http://www.w3.org/2000/svg" xmlns:xlink="http://www.w3.org/1999/xlink"><linearGradient id="a"><stop offset="0" stop-color="#f56bf4"/><stop offset="1" stop-color="#f9a4c1"/></linearGradient><linearGradient id="b" gradientUnits="userSpaceOnUse" x1="-7.95993" x2="456.04007" xlink:href="#a" y1="240" y2="240"/><linearGradient id="c" gradientUnits="userSpaceOnUse" x1="-7.95993" x2="456.04007" xlink:href="#a" y1="168" y2="168"/><linearGradient id="d" gradientUnits="userSpaceOnUse" x1="-7.95993" x2="456.04007" xlink:href="#a" y1="144" y2="144"/><path d="m325.167969 1.855469c-.910157-.609375-1.886719-1.121094-2.902344-1.527344-.734375-.167969-1.476563-.2773438-2.226563-.328125h-192c-.738281.0507812-1.472656.15625-2.199218.3125-1.027344.410156-2.007813.925781-2.929688 1.542969l-48 40c-2.46875 2.066406-3.464844 5.410156-2.519531 8.488281.339844.855469.757813 1.679688 1.25 2.457031l80.046875 106.71875c-71.65625 33.042969-110.65625 111.5-93.742188 188.574219 16.914063 77.070312 85.1875 131.988281 164.09375 131.988281s147.179688-54.917969 164.09375-131.988281c16.917969-77.074219-22.085937-155.53125-93.742187-188.574219l80.050781-106.71875c.488282-.777343.90625-1.601562 1.246094-2.457031.945312-3.078125-.046875-6.421875-2.519531-8.488281zm-3.40625 17.984375 26.503906 22.097656-44.175781 4.414062zm-16.664063-3.839844-19.027344 28.527344-38.03125-28.527344zm-70.242187 168.535156c-3.839844-.359375-7.367188-.535156-10.816407-.535156-3.445312 0-6.976562.175781-10.816406.535156l-41.933594-120.535156h105.503907zm4.367187 16.625c5.132813.691406 10.210938 1.738282 15.203125 3.128906.191407.054688.390625 0 .589844.078126 53.648437 15.417968 87.753906 67.988281 79.96875 123.265624-7.785156 55.273438-55.082031 96.378907-110.90625 96.378907-55.820313 0-103.117187-41.105469-110.902344-96.378907-7.785156-55.277343 26.320313-107.847656 79.96875-123.265624.167969-.039063.335938 0 .496094-.070313 4.988281-1.390625 10.066406-2.4375 15.199219-3.128906 10.070312-1.589844 20.328125-1.59375 30.398437-.007813zm24.816406-153.160156h-80l40-30zm-64-32-38.03125 28.527344-19.023437-28.527344zm-73.71875 3.839844 17.671876 26.511718-44.175782-4.414062zm-28.953124 37.9375 56.800781 5.679687 42.96875 123.511719c-.800781.175781-1.601563.351562-2.457031.542969zm66.121093 114.816406 14.894531 19.855469c-30.308593 11.640625-55.070312 34.355469-69.277343 63.550781h-26.402344c14.804687-37.414062 43.863281-67.417969 80.785156-83.40625zm-91.449219 139.40625c.023438-13.515625 1.847657-26.96875 5.425782-40h25.0625c-8.648438 25.964844-8.648438 54.035156 0 80h-24.96875c-3.621094-13.027344-5.476563-26.480469-5.519532-40zm152 152c-62.269531-.097656-118.195312-38.125-141.175781-96h26.257813c21.347656 44.035156 65.980468 72 114.917968 72s93.574219-27.964844 114.921876-72h26.253906c-22.980469 57.875-78.90625 95.902344-141.175782 96zm152-152c-.039062 13.519531-1.898437 26.972656-5.519531 40h-24.96875c8.65625-25.964844 8.65625-54.035156 0-80h25.097657c3.554687 13.035156 5.371093 26.488281 5.390624 40zm-10.621093-56h-26.457031c-14.210938-29.1875-38.957032-51.902344-69.25-63.566406l14.863281-19.816406c36.953125 15.953124 66.039062 45.953124 80.84375 83.382812zm-112-68.488281c-.800781-.191407-1.601563-.367188-2.457031-.542969l42.960937-123.511719 56.796875-5.679687zm0 0" fill="url(#b)"/><path d="m56.039062 128c0-4.417969-3.582031-8-8-8-4.417968 0-8 3.582031-8 8 0 17.671875-14.324218 32-32 32-4.417968 0-7.9999995 3.582031-7.9999995 8s3.5820315 8 7.9999995 8c17.675782 0 32 14.328125 32 32 0 4.417969 3.582032 8 8 8 4.417969 0 8-3.582031 8-8 0-17.671875 14.328126-32 32-32 4.417969 0 8-3.582031 8-8s-3.582031-8-8-8c-17.671874 0-32-14.328125-32-32zm-8 53.519531c-3.5625-5.359375-8.15625-9.957031-13.519531-13.519531 5.363281-3.5625 9.957031-8.160156 13.519531-13.519531 3.5625 5.359375 8.160157 9.957031 13.519532 13.519531-5.359375 3.5625-9.957032 8.160156-13.519532 13.519531zm0 0" fill="url(#c)"/><path d="m440.039062 152c4.417969 0 8-3.582031 8-8s-3.582031-8-8-8c-17.671874 0-32-14.328125-32-32 0-4.417969-3.582031-8-8-8-4.417968 0-8 3.582031-8 8 0 17.671875-14.324218 32-32 32-4.417968 0-8 3.582031-8 8s3.582032 8 8 8c17.675782 0 32 14.328125 32 32 0 4.417969 3.582032 8 8 8 4.417969 0 8-3.582031 8-8 0-17.671875 14.328126-32 32-32zm-40 5.519531c-3.5625-5.359375-8.15625-9.957031-13.519531-13.519531 5.363281-3.5625 9.957031-8.160156 13.519531-13.519531 3.5625 5.359375 8.160157 9.957031 13.519532 13.519531-5.359375 3.5625-9.957032 8.160156-13.519532 13.519531zm0 0" fill="url(#d)"/></svg>