<?xml version="1.0" encoding="iso-8859-1"?>
<!-- Generator: Adobe Illustrator 16.0.0, SVG Export Plug-In . SVG Version: 6.00 Build 0)  -->
<!DOCTYPE svg PUBLIC "-//W3C//DTD SVG 1.1//EN" "http://www.w3.org/Graphics/SVG/1.1/DTD/svg11.dtd">
<svg version="1.1" id="&#x428;&#x430;&#x440;_1" xmlns="http://www.w3.org/2000/svg" xmlns:xlink="http://www.w3.org/1999/xlink"
	 x="0px" y="0px" width="56.03px" height="42px" viewBox="0 0 56.03 42" style="enable-background:new 0 0 56.03 42;"
	 xml:space="preserve">
<path style="fill:#FFFFFF;" d="M1.804,36.834c1.084-0.04,1.943-0.072,3.38-0.07h0.021c1.071,0.002,2.163,0.054,3.223,0.182
	c-0.085,0.542-0.234,1.091-0.432,1.632c-0.19,0.542-0.423,1.083-0.736,1.639c-1.126,0.089-2.26,0.13-3.338,0.128
	c-0.472-0.001-1.077-0.009-1.892-0.025l-0.559,1.583H0L1.804,36.834z M6.147,39.335c0.129-0.26,0.234-0.5,0.328-0.759
	c0.093-0.253,0.156-0.5,0.214-0.753c-0.445-0.043-1.302-0.066-1.844-0.066c-0.712-0.001-1.286,0.019-1.909,0.045H2.929L2.382,39.35
	l0.008-0.007c0.6,0.043,1.156,0.051,1.867,0.052C4.955,39.397,5.528,39.377,6.147,39.335"/>
<path style="fill:#FFFFFF;" d="M9.888,36.834h1.509l-0.339,0.94c-0.345,0.978-0.714,2.075-1.016,3.053
	c0.531,0.078,1.121,0.094,1.678,0.094c0.557,0.001,1.157-0.012,1.739-0.088c0.107-0.204,0.199-0.407,0.277-0.604l1.487,0.002
	c-0.211,0.535-0.437,1.034-0.724,1.604c-1.088,0.117-2.129,0.15-3.158,0.148c-1.05-0.002-2.038-0.039-3.05-0.16
	c0.364-1.309,0.823-2.743,1.286-4.052L9.888,36.834z"/>
<path style="fill:#FFFFFF;" d="M19.787,36.861c0.067-0.014,0.678-0.082,1.601-0.08l0.219,0c0.599,0.001,1.139,0.016,1.758,0.074
	l0.586,5.047h-1.48l-0.136-1.066l-4.347-0.008l-0.885,1.074h-1.48l3.658-4.436L19.787,36.861z M20.47,37.871l-1.64,1.954
	l3.375,0.006l-0.24-1.957c-0.167-0.014-0.503-0.029-0.736-0.03C20.996,37.844,20.662,37.857,20.47,37.871"/>
<path style="fill:#FFFFFF;" d="M26.845,36.824l3.531,0.008c1.064,0.002,2.408,0.019,3.445,0.154c-0.093,0.5-0.189,0.971-0.366,1.471
	c-0.21,0.584-0.446,1.188-0.802,1.808c-0.532,0.027-1.132,0.075-1.712,0.095l1.399,1.544h-1.881l-2.146-2.337l0.049-0.147
	l0.782,0.001c0.874,0.001,1.636-0.004,2.402-0.039c0.131-0.274,0.247-0.541,0.343-0.815c0.094-0.267,0.162-0.492,0.22-0.753
	c-0.679-0.029-1.313-0.03-2.081-0.031l-2.029-0.004l-1.472,4.125h-1.473L26.845,36.824z"/>
<path style="fill:#FFFFFF;" d="M35.652,36.834h1.469l-1.805,5.069h-1.479L35.652,36.834z"/>
<path style="fill:#FFFFFF;" d="M38.962,36.856h1.489l-0.316,0.899c-0.359,1-0.705,2.105-1.006,3.091
	c0.651,0.083,1.346,0.098,2.023,0.097c0.669,0,1.383-0.016,2.078-0.1c0.413-0.986,0.83-2.091,1.189-3.091l0.316-0.896h1.508
	l-0.316,0.895c-0.465,1.303-1.091,2.696-1.598,3.992c-1.224,0.191-2.403,0.255-3.551,0.256c-1.156,0.001-2.288-0.061-3.389-0.25
	c0.344-1.295,0.781-2.696,1.245-3.992L38.962,36.856z"/>
<path style="fill:#FFFFFF;" d="M47.846,36.875c0.965-0.05,1.988-0.092,3.561-0.108c0.056,0,0.128-0.007,0.184-0.007h0.374
	c1.374-0.001,2.733,0.054,4.065,0.201c-0.481,1.563-1.081,3.38-1.632,4.943h-1.48c0.436-1.247,0.95-2.752,1.323-3.999
	c-0.621-0.042-1.265-0.069-1.905-0.083l-1.44,4.081h-1.487l1.441-4.08c-0.657,0.015-1.324,0.043-1.971,0.086
	c-0.506,1.246-1.056,2.747-1.492,3.993h-1.48c0.436-1.247,0.972-2.667,1.499-3.976C47.513,37.663,47.846,36.875,47.846,36.875"/>
<path style="fill:#FFFFFF;" d="M51.315,7.914c0.184,0.288,0.181,0.481,0.154,0.608h-0.003c-0.006,0.03-0.015,0.061-0.024,0.09
	c-0.13,0.36-0.561,0.756-1.203,1.098c-1.879,0.995-4.354,1.99-7.376,2.964v-0.027c-0.015-0.961-0.941-1.682-3.085-2.398
	c-14.02-4.688-25.539-0.541-29.652,1.905c1.284-3.698,2.998-7.727,4.068-8.332c5.681-3.215,13.434-4.488,21.269-3.49
	C42.835,1.27,48.908,4.176,51.315,7.914"/>
<path style="fill:#FFFFFF;" d="M50.697,11.177c-1.062,3.502-2.467,7.579-3.257,8.456c-2.599,2.886-27.451,8.568-41.235,1.921
	C14.087,20.543,39.584,16.926,50.697,11.177"/>
<path style="fill:#FFFFFF;" d="M26.527,9.62l-2.723,7.633c-0.507,0.094-1.016,0.188-1.532,0.281
	c-2.606,0.472-5.111,0.889-7.394,1.246c-2.365-1-5.513-2.903-5.597-4.034c0.003-0.013,0.006-0.021,0.009-0.033
	c0.404-0.678,3.562-2.813,9.013-4.107C20.501,10.083,23.291,9.647,26.527,9.62"/>
<path style="fill:#FFFFFF;" d="M20.833,26.111l-1.764,5.107h-7.37l2.036-5.807C16.123,25.83,18.538,26.039,20.833,26.111"/>
</svg>
